<?xml version="1.0" standalone="no"?>
<!DOCTYPE svg PUBLIC "-//W3C//DTD SVG 20010904//EN"
 "http://www.w3.org/TR/2001/REC-SVG-20010904/DTD/svg10.dtd">
<svg version="1.0" xmlns="http://www.w3.org/2000/svg"
 width="200.000000pt" height="200.000000pt" viewBox="0 0 200.000000 200.000000"
 preserveAspectRatio="xMidYMid meet">
<metadata>
Created by potrace 1.14, written by Peter Selinger 2001-2017
</metadata>
<g transform="translate(0.000000,200.000000) scale(0.100000,-0.100000)"
fill="#000000" stroke="none">
<path d="M0 1000 l0 -1000 1000 0 1000 0 0 1000 0 1000 -1000 0 -1000 0 0
-1000z m1498 428 l3 -38 -40 0 c-40 0 -41 1 -41 33 0 42 7 49 45 45 27 -3 30
-7 33 -40z m-108 -98 l0 -50 -50 0 -50 0 0 50 0 50 50 0 50 0 0 -50z m-342
-37 c3 -31 2 -33 -31 -33 -89 0 -181 -62 -220 -149 -24 -52 -31 -40 -25 36 l3
45 -48 -5 c-54 -5 -91 -28 -124 -77 -44 -63 -38 -148 13 -210 14 -16 23 -30
19 -30 -14 0 -52 24 -82 52 l-31 30 -28 -41 c-57 -87 -34 -200 52 -248 39 -22
43 -23 457 -23 452 0 455 0 490 54 41 62 25 145 -35 190 -33 23 -117 27 -142
7 -26 -22 -19 7 8 34 14 14 42 27 65 31 37 6 41 9 41 35 0 25 4 29 29 29 31 0
41 -14 41 -58 0 -16 12 -38 30 -56 39 -38 53 -85 48 -157 -5 -71 -40 -122
-108 -156 -44 -23 -49 -23 -458 -23 -286 0 -427 4 -453 12 -168 50 -216 283
-85 407 25 24 36 44 36 63 0 16 11 51 25 78 43 86 139 138 234 127 36 -4 51 0
90 24 47 30 115 49 161 46 20 -2 26 -8 28 -34z m420 -39 c21 -6 22 -11 22
-104 0 -114 4 -110 -110 -110 -114 0 -110 -4 -110 110 0 69 4 100 13 103 17 8
158 8 185 1z m-228 -84 l0 -40 -40 0 c-39 0 -40 1 -40 33 0 19 3 37 7 40 3 4
21 7 40 7 32 0 33 -1 33 -40z"/>
</g>
</svg>
